<svg xmlns="http://www.w3.org/2000/svg" viewBox="0 0 180 180" width="180" height="180">
  <!-- Background -->
  <rect width="180" height="180" rx="40" ry="40" fill="#007AFF" />
  
  <!-- Cloud shape -->
  <path d="M140,80c0-16.6-13.4-30-30-30c-1,0-2,0.1-3,0.2C101.4,37.1,90.5,27,77.5,27c-16.1,0-29.2,13-29.2,29.2c0,1.4,0.1,2.8,0.3,4.2C33.8,63.1,23,75.1,23,89.5c0,16.6,13.4,30,30,30h67c16.6,0,30-13.4,30-30C150,85,144.9,80.3,140,80z" 
        fill="#FFFFFF" />
  
  <!-- Camera lens outer circle -->
  <circle cx="90" cy="90" r="25" fill="#FFFFFF" opacity="0.9" />
  
  <!-- Camera lens inner circle -->
  <circle cx="90" cy="90" r="17" fill="#333333" />
  
  <!-- Camera lens reflection -->
  <circle cx="83" cy="83" r="4" fill="#FFFFFF" opacity="0.7" />
  
  <!-- Camera button -->
  <circle cx="128" cy="72" r="7" fill="#FF3B30" />
</svg>
