<svg xmlns="http://www.w3.org/2000/svg" viewBox="0 0 192 192" width="192" height="192">
  <!-- Background gradient -->
  <defs>
    <linearGradient id="cloudGradient" x1="0%" y1="0%" x2="100%" y2="100%">
      <stop offset="0%" stop-color="#5AAAFA" />
      <stop offset="100%" stop-color="#007AFF" />
    </linearGradient>
  </defs>
  
  <!-- Main cloud shape -->
  <path d="M155.5,90c0-19.3-15.7-35-35-35c-1.2,0-2.3,0.1-3.5,0.2C110.3,39.6,97.2,28,82,28c-18.8,0-34,15.2-34,34c0,1.7,0.1,3.3,0.4,4.9C32.5,69.9,20,84.2,20,101.5c0,19.3,15.7,35,35,35h78c19.3,0,35-15.7,35-35C168,95.7,165.5,90.4,155.5,90z" 
        fill="url(#cloudGradient)" />
  
  <!-- Camera lens outer circle -->
  <circle cx="96" cy="96" r="30" fill="#FFFFFF" opacity="0.9" />
  
  <!-- Camera lens inner circle -->
  <circle cx="96" cy="96" r="20" fill="#333333" />
  
  <!-- Camera lens reflection -->
  <circle cx="88" cy="88" r="5" fill="#FFFFFF" opacity="0.7" />
  
  <!-- Camera button -->
  <circle cx="140" cy="80" r="8" fill="#FF3B30" />
</svg>
