<svg xmlns="http://www.w3.org/2000/svg" viewBox="0 0 512 512" width="512" height="512">
  <!-- Background gradient -->
  <defs>
    <linearGradient id="cloudGradient" x1="0%" y1="0%" x2="100%" y2="100%">
      <stop offset="0%" stop-color="#5AAAFA" />
      <stop offset="100%" stop-color="#007AFF" />
    </linearGradient>
  </defs>
  
  <!-- Main cloud shape -->
  <path d="M415,240c0-51.4-41.6-93-93-93c-3.1,0-6.2,0.1-9.2,0.4C294.2,105.6,258.7,76,216,76c-49.9,0-90.3,40.4-90.3,90.3c0,4.4,0.3,8.8,0.9,13.1C86.7,186.4,54,223.4,54,269.2c0,51.4,41.6,93,93,93h207.6c51.4,0,93-41.6,93-93C447.6,254.8,433.3,240.9,415,240z" 
        fill="url(#cloudGradient)" />
  
  <!-- Camera lens outer circle -->
  <circle cx="256" cy="256" r="80" fill="#FFFFFF" opacity="0.9" />
  
  <!-- Camera lens inner circle -->
  <circle cx="256" cy="256" r="55" fill="#333333" />
  
  <!-- Camera lens reflection -->
  <circle cx="236" cy="236" r="14" fill="#FFFFFF" opacity="0.7" />
  
  <!-- Camera button -->
  <circle cx="373" cy="213" r="20" fill="#FF3B30" />
</svg>
